<svg version="1" xmlns="http://www.w3.org/2000/svg" width="933.333" height="933.333" viewBox="0 0 700.000000 700.000000"><path d="M329.5 66c-22 3.1-41.8 17.5-51.3 37.5-1.9 3.9-4.1 8.6-5 10.5-2.8 5.8-11.2 13.4-18.7 17-3.9 1.8-8.4 4.5-10.2 6.1-5.1 4.4-7.9 4.5-19.3.5-5.6-2-13.9-4-18.5-4.7-24.6-3.2-50.9 8.8-64.9 30-7.8 11.6-10.9 21-12.5 37.2-.9 8.8-1.4 10.2-7.5 22-8.7 17-10.6 23.1-11.3 35.9-.4 8.8-.2 11.9 1.7 19 1.2 4.7 2.1 10.3 1.9 12.5-.1 2.2-.3 8.5-.3 14-.1 9.4.1 10.5 3.3 16.9 4 8.3 12.1 16.5 19.9 20.3 5.1 2.5 6.8 2.8 15.7 2.8 9.1 0 10.6-.3 16.7-3.2 3.7-1.7 8.7-4.5 11-6.1 2.4-1.6 5.9-3.3 7.8-3.6 1.9-.4 8.4-2.1 14.5-3.8 12.6-3.5 18.2-3.4 24.2.6 2.1 1.4 5.2 3 6.8 3.6 2.7 1 3.3 2.1 6.8 12.8 7.1 21.9 20.7 48.1 34.8 67.3 13.5 18.2 33 38.5 48.2 49.9 5.6 4.2 5.7 5.3 2.7 23.6-3.7 22.7-9.6 42.4-19.6 64.9-4.8 10.6-5.1 11.1-9.9 13.5-4.6 2.3-6.1 2.5-17.5 2.4-11.5-.1-13.7-.4-27.5-4.3-20.8-5.8-31.1-7.5-41.5-6.7-9.7.7-18.7 2.8-20.8 5-1.5 1.5-6.2 19.3-6.2 23.7 0 1.5.9 3.7 1.9 5l1.9 2.4 158.7.3 158.6.2 3-2.9c2.8-2.8 2.9-3.3 2.9-11.8 0-8-.2-9.2-2.2-11-4.8-4.3-4.9-4.3-54.1-4.3h-47.3l-9.2-10.4c-11.5-13-15.7-19.4-18.2-27.5-2.9-9.2-2.6-18.7 1-32.9 2.1-8.3 4.1-22 7-46.6 2.2-19.2 4.1-35 4.3-35.2.1-.1 4.3-.9 9.3-1.8 25.5-4.4 48.1-15.5 67.3-33.1 3.7-3.4 5.4-4.2 11.4-5.2 3.9-.6 9.8-2.6 13.2-4.3l6.2-3.1 6.4 3.4c9.4 5.2 15.7 6.7 27.4 6.7 17.1 0 28.9-4.4 39.1-14.6 8.3-8.3 12.5-16.8 13.5-27.7.4-4.5 1.5-10.5 2.5-13.2 1.4-3.9 1.8-8.4 1.8-20 .1-17.8-1.6-25.3-9.2-39.9-4.7-9.2-8.6-13.6-27.9-31.7-4-3.7-7.2-7.9-9.3-12.2l-3.2-6.6-.3-18.3c-.2-16.6-.4-19.1-2.9-27.1-3-10.1-5.2-14.7-10.8-23-11.5-16.9-30.2-28.9-51.9-33.3-9.7-1.9-17.5-4.7-27.5-9.7-13.2-6.7-26.2-8.3-40.9-5.2-9.1 1.9-12.1 1-21-6.2-15.7-12.6-36.6-18.8-55-16.3zm-35.2 261.4c1.8.8 5.8 3.8 8.9 6.8l5.7 5.3 9 30.1c7.8 26.4 9 31.7 10.1 42.8.7 7 .9 13 .6 13.3-.3.3-4-3-8.3-7.4-18.2-18.4-30-42.1-33.7-67.4-1.7-11-2.1-23.1-.9-24.2 1.1-1.1 5.2-.8 8.6.7zm133.9 26.3c3.1 2.1 5.6 4.2 5.4 4.8-.5 2-17.8 14.2-26.6 18.9l-8.9 4.7 1.5-3.8c.9-2.1 2.2-4.5 3-5.4.8-.8 1.4-2.3 1.4-3.2 0-1.7 9.3-21 11.3-23.5.8-1 1.6-.7 4.1 1.2 1.7 1.4 5.7 4.2 8.8 6.3z"/></svg>