<svg width="16" height="16" fill="none" xmlns="http://www.w3.org/2000/svg"><g id="Iconly/Light-outline/Message"><g id="Message"><path id="Message_2" fill-rule="evenodd" clip-rule="evenodd" d="M11.017 2H4.97C2.858 2 1.333 3.708 1.333 5.906v4.188C1.333 12.292 2.858 14 4.971 14h6.04a3.681 3.681 0 002.664-1.182 3.733 3.733 0 00.984-2.754l.001-4.158a3.712 3.712 0 00-.985-2.724A3.678 3.678 0 0011.017 2zM4.97 3.019h6.035a2.67 2.67 0 011.93.858c.499.54.757 1.262.714 1.999l-.001 4.218a2.732 2.732 0 01-.714 2.029c-.5.54-1.197.85-1.93.858H4.972c-1.53 0-2.626-1.229-2.626-2.887V5.906c0-1.658 1.097-2.887 2.626-2.887zm7.045 2.74a.503.503 0 00-.71-.08L8.571 7.884l-.078.055a.92.92 0 01-1.054-.06l-2.753-2.2-.062-.042a.504.504 0 00-.649.125.512.512 0 00.082.715L6.814 8.68l.108.078a1.926 1.926 0 002.277-.076l2.738-2.207.055-.051a.512.512 0 00.024-.665z" fill="currentColor"/></g></g></svg>