<svg width="16" height="16" fill="none" xmlns="http://www.w3.org/2000/svg"><g id="Iconly/Light-outline/Profile"><g id="Profile"><path id="Profile_2" fill-rule="evenodd" clip-rule="evenodd" d="M8.003 1.332A3.55 3.55 0 004.46 4.89a3.55 3.55 0 003.542 3.557 3.55 3.55 0 003.542-3.557 3.55 3.55 0 00-3.542-3.557zm0 .965c1.425 0 2.58 1.16 2.58 2.592a2.586 2.586 0 01-2.58 2.592 2.586 2.586 0 01-2.58-2.592 2.586 2.586 0 012.58-2.592zM6.553 9.88c-.518.036-1.042.11-1.559.22-.998.206-1.796.617-2.136 1.299a1.953 1.953 0 00-.004 1.677c.326.674 1.031 1.056 1.984 1.268l.17.035c.503.114 1.027.19 1.555.226.045.013.152.025.27.031l.095.004.19.001c.758.042 1.544.03 2.327-.037.417-.028.837-.083 1.254-.163l.311-.064c1.029-.203 1.799-.589 2.136-1.3a1.95 1.95 0 000-1.67c-.337-.71-1.097-1.092-2.144-1.307-.41-.088-.828-.153-1.248-.194l-.307-.026a16.461 16.461 0 00-2.894 0zm2.81.961h.008c.482.035.962.102 1.435.203.778.16 1.305.426 1.472.778a.981.981 0 010 .84c-.156.329-.63.583-1.315.738l-.15.032c-.482.108-.96.177-1.441.21-.747.064-1.489.075-2.229.035l-.262-.005a1.299 1.299 0 01-.191-.022c-.45-.034-.856-.087-1.25-.165l-.235-.05c-.78-.153-1.312-.42-1.485-.777a.983.983 0 010-.834c.169-.337.733-.627 1.47-.779.477-.102.956-.17 1.439-.203a15.495 15.495 0 012.733-.001z" fill="currentColor"/></g></g></svg>