<svg width="47" height="47" fill="none" xmlns="http://www.w3.org/2000/svg"><circle cx="23.5" cy="23.5" r="23.5" fill="#ECBE4A" fill-opacity=".6"/><path fill-rule="evenodd" clip-rule="evenodd" d="M23.543 8.737c-6.805-.023-12.362 5.39-12.584 12.167l-.007.42a15.85 15.85 0 003.233 9.096l.468.61a30.644 30.644 0 006.692 6.284l.61.41.09.07a2.497 2.497 0 002.91 0l.075-.06a31.185 31.185 0 005.527-4.568c3.378-3.576 5.414-7.582 5.491-11.651v-.152c.023-6.821-5.373-12.396-12.129-12.619l-.376-.007zm-.008 2.24c5.578.02 10.107 4.477 10.275 10.027l.005.49c-.065 3.41-1.85 6.926-4.872 10.125a28.94 28.94 0 01-5.142 4.244l-.125.094a.268.268 0 01-.352 0l-.121-.092a28.422 28.422 0 01-7.237-6.797 13.587 13.587 0 01-2.753-7.255l-.028-.527c.019-5.592 4.462-10.135 9.995-10.304l.355-.004zm-.035 5.734a4.788 4.788 0 00-4.78 4.795 4.788 4.788 0 004.78 4.796c2.64 0 4.78-2.147 4.78-4.796a4.788 4.788 0 00-4.78-4.795zm0 2.24a2.551 2.551 0 012.547 2.555 2.551 2.551 0 01-2.547 2.556 2.551 2.551 0 01-2.547-2.556 2.551 2.551 0 012.547-2.555z" fill="#433F38"/></svg>