<svg xmlns="http://www.w3.org/2000/svg" xmlns:xlink="http://www.w3.org/1999/xlink"><symbol id="icon-button-arrow"><path fill-rule="evenodd" clip-rule="evenodd" d="M20.293 11.177c.4.055.707.402.707.823 0 .459-.366.83-.818.83H5.8l5.195 5.251.08.093a.84.84 0 01-.077 1.082.81.81 0 01-1.157.002L3.252 12.6a.84.84 0 01-.012-1.189l6.6-6.67.093-.08a.81.81 0 011.065.083.839.839 0 01-.003 1.175L5.8 11.169h14.383l.11.008z" fill="currentColor"/></symbol><symbol id="icon-close-popup"><path d="M11.327 10l5.898-5.899A.938.938 0 1015.9 2.775L10 8.674l-5.899-5.9a.938.938 0 10-1.326 1.327l5.899 5.9-5.9 5.898a.938.938 0 101.327 1.326l5.9-5.899 5.898 5.9a.935.935 0 001.326 0 .937.937 0 000-1.327L11.327 10z" fill="currentColor"/></symbol><symbol id="icon-email"><g id="Iconly/Light-outline/Message"><g id="Message"><path id="Message_2" fill-rule="evenodd" clip-rule="evenodd" d="M11.017 2H4.97C2.858 2 1.333 3.708 1.333 5.906v4.188C1.333 12.292 2.858 14 4.971 14h6.04a3.681 3.681 0 002.664-1.182 3.733 3.733 0 00.984-2.754l.001-4.158a3.712 3.712 0 00-.985-2.724A3.678 3.678 0 0011.017 2zM4.97 3.019h6.035a2.67 2.67 0 011.93.858c.499.54.757 1.262.714 1.999l-.001 4.218a2.732 2.732 0 01-.714 2.029c-.5.54-1.197.85-1.93.858H4.972c-1.53 0-2.626-1.229-2.626-2.887V5.906c0-1.658 1.097-2.887 2.626-2.887zm7.045 2.74a.503.503 0 00-.71-.08L8.571 7.884l-.078.055a.92.92 0 01-1.054-.06l-2.753-2.2-.062-.042a.504.504 0 00-.649.125.512.512 0 00.082.715L6.814 8.68l.108.078a1.926 1.926 0 002.277-.076l2.738-2.207.055-.051a.512.512 0 00.024-.665z" fill="currentColor"/></g></g></symbol><symbol id="icon-menu"><rect width="28" height="4" rx="2" fill="currentColor"/><rect y="8" width="28" height="4" rx="2" fill="currentColor"/><rect y="16" width="28" height="4" rx="2" fill="currentColor"/></symbol><symbol id="icon-more-arrow"><path d="M20.354 4.354a.5.5 0 000-.708L17.172.464a.5.5 0 10-.707.708L19.293 4l-2.828 2.828a.5.5 0 10.707.708l3.182-3.182zM0 4.5h20v-1H0v1z" fill="currentColor"/></symbol><symbol id="icon-name"><g id="Iconly/Light-outline/Profile"><g id="Profile"><path id="Profile_2" fill-rule="evenodd" clip-rule="evenodd" d="M8.003 1.332A3.55 3.55 0 004.46 4.89a3.55 3.55 0 003.542 3.557 3.55 3.55 0 003.542-3.557 3.55 3.55 0 00-3.542-3.557zm0 .965c1.425 0 2.58 1.16 2.58 2.592a2.586 2.586 0 01-2.58 2.592 2.586 2.586 0 01-2.58-2.592 2.586 2.586 0 012.58-2.592zM6.553 9.88c-.518.036-1.042.11-1.559.22-.998.206-1.796.617-2.136 1.299a1.953 1.953 0 00-.004 1.677c.326.674 1.031 1.056 1.984 1.268l.17.035c.503.114 1.027.19 1.555.226.045.013.152.025.27.031l.095.004.19.001c.758.042 1.544.03 2.327-.037.417-.028.837-.083 1.254-.163l.311-.064c1.029-.203 1.799-.589 2.136-1.3a1.95 1.95 0 000-1.67c-.337-.71-1.097-1.092-2.144-1.307-.41-.088-.828-.153-1.248-.194l-.307-.026a16.461 16.461 0 00-2.894 0zm2.81.961h.008c.482.035.962.102 1.435.203.778.16 1.305.426 1.472.778a.981.981 0 010 .84c-.156.329-.63.583-1.315.738l-.15.032c-.482.108-.96.177-1.441.21-.747.064-1.489.075-2.229.035l-.262-.005a1.299 1.299 0 01-.191-.022c-.45-.034-.856-.087-1.25-.165l-.235-.05c-.78-.153-1.312-.42-1.485-.777a.983.983 0 010-.834c.169-.337.733-.627 1.47-.779.477-.102.956-.17 1.439-.203a15.495 15.495 0 012.733-.001z" fill="currentColor"/></g></g></symbol><symbol id="icon-phone"><path fill-rule="evenodd" clip-rule="evenodd" d="M4.313 1.334l.018.002c.349.028.652.202.93.473.525.514 1.655 2.013 1.74 2.422.095.455-.006.75-.307 1.274l-.073.129c-.138.252-.159.356-.116.475.657 1.608 1.778 2.73 3.368 3.379.15.054.264.023.582-.16l.166-.093c.448-.246.731-.323 1.15-.236.406.085 1.907 1.216 2.42 1.741.27.277.444.581.474.953.032.905-1.072 2.179-1.745 2.562-.766.548-1.738.539-2.828.032-2.85-1.186-7.21-5.518-8.371-8.364l-.07-.16c-.44-1.054-.431-1.965.074-2.651.461-.764 1.705-1.818 2.588-1.778zm-.054.975l-.059.003c-.453.06-1.361.843-1.664 1.34l-.052.078c-.261.425-.23 1.008.132 1.806l.07.163c1.17 2.626 5.222 6.622 7.799 7.695l.142.063c.745.316 1.31.302 1.766-.022l.034-.022c.142-.098.468-.394.719-.684.352-.407.552-.78.546-.978-.007-.085-.073-.2-.199-.329-.382-.39-1.769-1.436-1.922-1.468-.145-.03-.264.01-.59.197l-.163.092c-.48.259-.818.329-1.295.155C7.672 9.643 6.358 8.33 5.595 6.46c-.181-.5-.084-.854.23-1.402l.076-.131c.142-.258.173-.368.146-.498-.032-.154-1.077-1.54-1.468-1.922-.13-.127-.244-.192-.329-.2l.009.002z" fill="currentColor"/></symbol></svg>